# xmcd
#
# Track frame offsets:
#	150
#	34440
#	64480
#	116037
#	196575
#
# Disc length: 3758 seconds
#
# Revision: 1
# Processed by: cddbd v1.5.1PL0 Copyright (c) Steve Scherf et al.
# Submitted via: CDex 1.50Beta5
#
DISCID=460eac05
DTITLE=Leomard Bernstein - New York Philharmonic - Bernstein Conducts HIS OWN Works
DYEAR=1990
DGENRE=Classical
TTITLE0=交響曲第１番−エレミア・第１楽章：予言
TTITLE1=交響曲第１番−エレミア・第２楽章：冒涜
TTITLE2=交響曲第１番−エレミア・第３楽章：哀歌
TTITLE3=交響曲第２番−不安の時代・第１部：プロローグ・７つの時代・７つの段階　
TTITLE4=交響曲第２番−不安の時代・第２部：挽歌・仮面舞踏会・エピローグ
EXTD=
EXTT0=
EXTT1=
EXTT2=
EXTT3=
EXTT4=
PLAYORDER=
